<svg width="32" height="32" viewBox="0 0 32 32" fill="none" xmlns="http://www.w3.org/2000/svg">
<g opacity="0.4">
<path d="M27.9998 15.9997C27.9998 16.2649 27.8944 16.5193 27.7069 16.7068C27.5193 16.8944 27.265 16.9997 26.9998 16.9997H14.9998V24.9997C15.0004 25.1971 14.9425 25.3903 14.8335 25.5549C14.7246 25.7195 14.5693 25.8482 14.3873 25.9247C14.2639 25.9737 14.1325 25.9991 13.9998 25.9997C13.7342 25.9986 13.4792 25.8957 13.2873 25.7122L4.28727 16.7122C4.09948 16.5226 3.99414 16.2666 3.99414 15.9997C3.99414 15.7329 4.09948 15.4768 4.28727 15.2872L13.2873 6.28721C13.4319 6.15155 13.6119 6.0596 13.8066 6.02199C14.0012 5.98439 14.2026 6.00266 14.3873 6.07471C14.5693 6.15121 14.7246 6.27987 14.8335 6.44448C14.9425 6.60909 15.0004 6.80228 14.9998 6.99971V14.9997H26.9998C27.265 14.9997 27.5193 15.1051 27.7069 15.2926C27.8944 15.4801 27.9998 15.7345 27.9998 15.9997Z" fill="black"/>
</g>
</svg>
