<svg width="32" height="32" viewBox="0 0 32 32" fill="none" xmlns="http://www.w3.org/2000/svg">
<path d="M27.7125 16.7122L18.7125 25.7122C18.5205 25.8957 18.2655 25.9986 18 25.9997C17.8673 25.9991 17.7358 25.9737 17.6125 25.9247C17.4305 25.8482 17.2752 25.7195 17.1662 25.5549C17.0572 25.3903 16.9994 25.1971 17 24.9997V16.9997H5C4.73478 16.9997 4.48043 16.8944 4.29289 16.7068C4.10536 16.5193 4 16.2649 4 15.9997C4 15.7345 4.10536 15.4801 4.29289 15.2926C4.48043 15.1051 4.73478 14.9997 5 14.9997H17V6.99971C16.9994 6.80228 17.0572 6.60909 17.1662 6.44448C17.2752 6.27987 17.4305 6.15121 17.6125 6.07471C17.7972 6.00266 17.9985 5.98439 18.1932 6.02199C18.3879 6.0596 18.5679 6.15155 18.7125 6.28721L27.7125 15.2872C27.9003 15.4768 28.0056 15.7329 28.0056 15.9997C28.0056 16.2666 27.9003 16.5226 27.7125 16.7122Z" fill="black"/>
</svg>
