<svg width="76" height="20" viewBox="0 0 76 20" fill="none" xmlns="http://www.w3.org/2000/svg">
<path d="M3.592 19V10.908H13.056V19H16.08V0.24H13.056V8.192H3.592V0.24H0.568V19H3.592ZM21.9331 3.32V0.24H18.9091L18.9371 3.32H21.9331ZM21.9611 19V5H18.9371V19H21.9611ZM27.7619 19V9.928C27.7619 8.08 28.4339 7.38 30.2539 7.38C32.0179 7.38 32.5499 8.052 32.5499 9.9V10.46H35.5739V9.536C35.5739 6.932 34.4539 4.804 31.5419 4.804C29.4979 4.804 28.2099 5.924 27.6499 7.212H27.5099V5H24.7379V19H27.7619ZM43.6954 19.28C47.4474 19.28 49.9394 17.432 49.9394 14.576V14.324H46.9434V14.548C46.9434 15.808 46.0474 16.592 43.7234 16.592C40.8114 16.592 39.8874 15.304 39.7754 12.756H49.8834C49.9674 12.336 50.0514 11.58 50.0514 10.852C50.0514 7.044 47.4194 4.804 43.6674 4.804C39.5234 4.804 36.9474 7.716 36.9474 12.028C36.9474 16.368 39.1034 19.28 43.6954 19.28ZM43.6114 7.352C45.9914 7.352 47.2794 8.36 47.1674 10.74H39.8034C39.9714 8.584 40.9794 7.352 43.6114 7.352ZM55.7372 19L60.8052 11.524H61.0012L66.0972 19H69.7092L63.3252 9.648V9.424L69.7092 0.24H66.1532L61.1132 7.548H60.8892L55.7932 0.24H52.1812L58.5652 9.424V9.648L52.1812 19H55.7372ZM75.6728 19V14.66H71.8368V19H75.6728Z" fill="white"/>
</svg>
